<mxfile host="drawio-plugin" modified="2025-08-13T06:31:48.240Z" agent="5.0 (Macintosh; Intel Mac OS X 10_15_7) AppleWebKit/537.36 (KHTML, like Gecko) Chrome/98.0.4758.102 Safari/537.36" etag="oisO0AZ_cP78iqs_3rEY" version="20.5.3" type="embed"><diagram name="DevOps Pipeline" id="devops-pipeline"><mxGraphModel dx="2300" dy="1036" grid="1" gridSize="10" guides="1" tooltips="1" connect="1" arrows="1" fold="1" page="1" pageScale="1" pageWidth="1169" pageHeight="827" math="0" shadow="0"><root><mxCell id="0"/><mxCell id="1" parent="0"/><mxCell id="git-repo" value="Git Repository" style="rounded=1;whiteSpace=wrap;html=1;fillColor=#dae8fc;strokeColor=#6c8ebf;fontSize=14;fontStyle=1;" parent="1" vertex="1"><mxGeometry x="40" y="80" width="120" height="60" as="geometry"/></mxCell><mxCell id="jenkins" value="Github Actions" style="rounded=1;whiteSpace=wrap;html=1;fillColor=#fff2cc;strokeColor=#d6b656;fontSize=14;fontStyle=1;" parent="1" vertex="1"><mxGeometry x="240" y="80" width="120" height="60" as="geometry"/></mxCell><mxCell id="registry" value="Docker Hub" style="rounded=1;whiteSpace=wrap;html=1;fillColor=#e1d5e7;strokeColor=#9673a6;fontSize=14;fontStyle=1;" parent="1" vertex="1"><mxGeometry x="440" y="80" width="120" height="60" as="geometry"/></mxCell><mxCell id="harness" value="Ansible&lt;br&gt;" style="rounded=1;whiteSpace=wrap;html=1;fillColor=#d5e8d4;strokeColor=#82b366;fontSize=14;fontStyle=1;" parent="1" vertex="1"><mxGeometry x="640" y="80" width="120" height="60" as="geometry"/></mxCell><mxCell id="staging" value="Vercel (Serveless)" style="rounded=1;whiteSpace=wrap;html=1;fillColor=#ffe6cc;strokeColor=#d79b00;fontSize=14;fontStyle=1;" parent="1" vertex="1"><mxGeometry x="850" y="9" width="120" height="60" as="geometry"/></mxCell><mxCell id="prod" value="Ali Cloud" style="rounded=1;whiteSpace=wrap;html=1;fillColor=#f8cecc;strokeColor=#b85450;fontSize=14;fontStyle=1;" parent="1" vertex="1"><mxGeometry x="850" y="80" width="120" height="60" as="geometry"/></mxCell><mxCell id="monitoring" value="📊 Monitoring" style="rounded=1;whiteSpace=wrap;html=1;fillColor=#f5f5f5;strokeColor=#666666;fontSize=14;fontStyle=1;" parent="1" vertex="1"><mxGeometry x="1090" y="80" width="120" height="60" as="geometry"/></mxCell><mxCell id="arrow1" value="" style="endArrow=classic;html=1;rounded=0;strokeWidth=2;strokeColor=#666666;" parent="1" source="git-repo" target="jenkins" edge="1"><mxGeometry width="50" height="50" relative="1" as="geometry"><mxPoint x="170" y="110" as="sourcePoint"/><mxPoint x="230" y="110" as="targetPoint"/></mxGeometry></mxCell><mxCell id="arrow2" value="" style="endArrow=classic;html=1;rounded=0;strokeWidth=2;strokeColor=#666666;" parent="1" source="jenkins" target="registry" edge="1"><mxGeometry width="50" height="50" relative="1" as="geometry"><mxPoint x="370" y="110" as="sourcePoint"/><mxPoint x="430" y="110" as="targetPoint"/></mxGeometry></mxCell><mxCell id="arrow3" value="" style="endArrow=classic;html=1;rounded=0;strokeWidth=2;strokeColor=#666666;" parent="1" source="registry" target="harness" edge="1"><mxGeometry width="50" height="50" relative="1" as="geometry"><mxPoint x="570" y="110" as="sourcePoint"/><mxPoint x="630" y="110" as="targetPoint"/></mxGeometry></mxCell><mxCell id="arrow4" value="" style="endArrow=classic;html=1;rounded=0;strokeWidth=2;strokeColor=#666666;" parent="1" source="harness" target="staging" edge="1"><mxGeometry width="50" height="50" relative="1" as="geometry"><mxPoint x="700" y="140" as="sourcePoint"/><mxPoint x="500" y="200" as="targetPoint"/></mxGeometry></mxCell><mxCell id="arrow5" value="" style="endArrow=classic;html=1;rounded=0;strokeWidth=2;strokeColor=#666666;exitX=1;exitY=0.5;exitDx=0;exitDy=0;" parent="1" source="harness" target="prod" edge="1"><mxGeometry width="50" height="50" relative="1" as="geometry"><mxPoint x="570" y="230" as="sourcePoint"/><mxPoint x="630" y="230" as="targetPoint"/></mxGeometry></mxCell><mxCell id="monitor1" value="" style="endArrow=classic;html=1;rounded=0;strokeWidth=1;strokeColor=#999999;dashed=1;" parent="1" source="prod" target="monitoring" edge="1"><mxGeometry width="50" height="50" relative="1" as="geometry"><mxPoint x="770" y="230" as="sourcePoint"/><mxPoint x="830" y="110" as="targetPoint"/></mxGeometry></mxCell><mxCell id="monitor2" value="" style="endArrow=classic;html=1;rounded=0;strokeWidth=1;strokeColor=#999999;dashed=1;" parent="1" source="staging" target="monitoring" edge="1"><mxGeometry width="50" height="50" relative="1" as="geometry"><mxPoint x="570" y="200" as="sourcePoint"/><mxPoint x="830" y="110" as="targetPoint"/></mxGeometry></mxCell><mxCell id="label1" value="Code Push" style="text;html=1;strokeColor=none;fillColor=none;align=center;verticalAlign=middle;whiteSpace=wrap;rounded=0;fontSize=10;fontColor=#666666;" parent="1" vertex="1"><mxGeometry x="180" y="90" width="60" height="20" as="geometry"/></mxCell><mxCell id="label2" value="Build &amp; Test" style="text;html=1;strokeColor=none;fillColor=none;align=center;verticalAlign=middle;whiteSpace=wrap;rounded=0;fontSize=10;fontColor=#666666;" parent="1" vertex="1"><mxGeometry x="380" y="90" width="60" height="20" as="geometry"/></mxCell><mxCell id="2" value="" style="dashed=0;outlineConnect=0;html=1;align=center;labelPosition=center;verticalLabelPosition=bottom;verticalAlign=top;shape=mxgraph.weblogos.github" vertex="1" parent="1"><mxGeometry x="281.25" y="39" width="37.5" height="35" as="geometry"/></mxCell><mxCell id="3" value="" style="verticalLabelPosition=bottom;html=1;verticalAlign=top;align=center;strokeColor=none;fillColor=#00BEF2;shape=mxgraph.azure.git_repository;" vertex="1" parent="1"><mxGeometry x="70" y="39" width="30" height="30" as="geometry"/></mxCell><mxCell id="5" value="" style="sketch=0;aspect=fixed;html=1;points=[];align=center;image;fontSize=12;image=img/lib/mscae/Docker.svg;" vertex="1" parent="1"><mxGeometry x="470" y="39" width="50" height="41" as="geometry"/></mxCell><mxCell id="6" value="deploy" style="text;html=1;align=center;verticalAlign=middle;resizable=0;points=[];autosize=1;strokeColor=none;fillColor=none;" vertex="1" parent="1"><mxGeometry x="770" y="85" width="60" height="30" as="geometry"/></mxCell></root></mxGraphModel></diagram></mxfile>